<svg xmlns="http://www.w3.org/2000/svg" xmlns:xlink="http://www.w3.org/1999/xlink" viewBox="0 0 219.1 218.33"><defs><style>.cls-1{fill:url(#linear-gradient);}.cls-2{stroke-miterlimit:10;stroke-width:2px;fill:url(#linear-gradient-2);stroke:url(#Gold);}.cls-3{fill:url(#radial-gradient);}.cls-4{fill:url(#linear-gradient-3);}</style><linearGradient id="linear-gradient" x1="42.24" y1="182.55" x2="186.05" y2="42.96" gradientUnits="userSpaceOnUse"><stop offset="0.01" stop-color="#fbb900"/><stop offset="0.25" stop-color="#fff173"/><stop offset="0.32" stop-color="#fee962"/><stop offset="0.46" stop-color="#fdd335"/><stop offset="0.6" stop-color="#fbb900"/><stop offset="0.78" stop-color="#f2cd5b"/><stop offset="0.87" stop-color="#eed688"/><stop offset="1" stop-color="#fff1b6"/></linearGradient><linearGradient id="linear-gradient-2" x1="181.02" y1="185.79" x2="39.85" y2="51.23" gradientUnits="userSpaceOnUse"><stop offset="0.01" stop-color="#fbc337"/><stop offset="0.25" stop-color="#ffd049"/><stop offset="0.58" stop-color="#ffdc38"/><stop offset="0.6" stop-color="#ffdd37"/><stop offset="0.87" stop-color="#ffe188"/><stop offset="1" stop-color="#fff57b"/></linearGradient><linearGradient id="Gold" x1="11.04" y1="111.67" x2="208.06" y2="111.67" gradientUnits="userSpaceOnUse"><stop offset="0.01" stop-color="#fbc926"/><stop offset="0.25" stop-color="#fffbcc"/><stop offset="0.3" stop-color="#f8f0bb"/><stop offset="0.41" stop-color="#e7d28e"/><stop offset="0.55" stop-color="#cca246"/><stop offset="0.6" stop-color="#c3922e"/><stop offset="0.87" stop-color="#eed688"/><stop offset="1" stop-color="#fffbcc"/></linearGradient><radialGradient id="radial-gradient" cx="117.84" cy="110.38" r="30.91" gradientUnits="userSpaceOnUse"><stop offset="0" stop-color="#fffbcc"/><stop offset="0.11" stop-color="#fbf2bb"/><stop offset="0.34" stop-color="#f0d98e"/><stop offset="0.37" stop-color="#eed688"/><stop offset="0.69" stop-color="#ebbb10"/><stop offset="1" stop-color="#c3922e"/></radialGradient><linearGradient id="linear-gradient-3" x1="82.55" y1="111.2" x2="140.71" y2="111.2" gradientUnits="userSpaceOnUse"><stop offset="0.01" stop-color="#fbee9b"/><stop offset="0.25" stop-color="#fffb42"/><stop offset="0.31" stop-color="#fffb53"/><stop offset="0.42" stop-color="#fffd80"/><stop offset="0.57" stop-color="#ffffc8"/><stop offset="0.6" stop-color="#ffffd4"/><stop offset="0.79" stop-color="#f3e379"/><stop offset="0.87" stop-color="#eed64e"/><stop offset="1" stop-color="#fffbcc"/></linearGradient></defs><title>Asset 1</title><g id="Layer_2" data-name="Layer 2"><g id="Layer_1-2" data-name="Layer 1"><path class="cls-1" d="M110.07,0c33.24,0,100.21,45.74,107.57,78.15s-14.2,106.91-41.09,126.45-104.4,17-133,0S-7.77,109.76,2.51,78.15,76.83,0,110.07,0Z"/><path class="cls-2" d="M110,14.51c29.59,0,89.2,40.71,95.75,69.56s-12.64,95.17-36.57,112.56-92.93,15.14-118.35,0S5.12,112.21,14.27,84.07,80.43,14.51,110,14.51Z"/><path class="cls-3" d="M95.34,88.3c-.17-3.79.36-6.51.67-10.29a60.2,60.2,0,0,1,15.27,3.44c-1.24,2.45-2.88,4.66-4.3,7a34.51,34.51,0,0,0-5,22.33c1.1,7.7,5.56,15,12.32,18.85s15.78,3.74,22.05-.86l3.51,7.82c-2.41-.25-3.41,2.93-5.09,4.68s-4.33,2.09-6.75,2.32c-6.79.65-13.66,1.31-20.42.39s-13.52-3.56-18.14-8.59c-5.84-6.35-7.5-15.8-5.83-24.27S90,95,95.34,88.3"/><path class="cls-4" d="M96.84,88.3A93.1,93.1,0,0,1,97.52,78L96,79.51a65.32,65.32,0,0,1,14.87,3.39l-.9-2.2c-3.88,7.14-8.3,13.12-9.44,21.42a30.08,30.08,0,0,0,3.83,19.69c6.81,11.27,21.47,15.85,32.77,8.28l-2.05-.54,3.51,7.82,1.3-2.26c-2.44.31-3.4,1.47-4.86,3.38-3.31,4.35-9.37,3.94-14.42,4.26-9,.56-18.55.15-26.21-5.09-17.51-12-8.38-35.08,2-48.29,1.18-1.5-.93-3.64-2.12-2.12-10.55,13.44-19.49,34.45-5.85,49.22,6.28,6.8,15.8,9.21,24.75,9.46a90.1,90.1,0,0,0,16.74-1,11.69,11.69,0,0,0,4.68-1.53c1.52-1,3.7-5,5.3-5.25a1.53,1.53,0,0,0,1.3-2.26L137.69,128a1.51,1.51,0,0,0-2.05-.54c-11.21,7.51-25.14,1.46-30.23-10.28a28.33,28.33,0,0,1-1.16-18.38c1.61-6.25,5.32-11.07,8.34-16.63a1.52,1.52,0,0,0-.9-2.2A68.79,68.79,0,0,0,96,76.51c-.86-.09-1.43.76-1.5,1.5a93.08,93.08,0,0,0-.67,10.29c0,1.93,3,1.93,3,0Z"/></g></g></svg>